<svg width="260" height="260" viewBox="0 0 260 260" fill="none" xmlns="http://www.w3.org/2000/svg">
<path d="M130 0C201.797 0 260 58.203 260 130C260 201.797 201.797 260 130 260C58.203 260 0 201.797 0 130C0 58.203 58.203 0 130 0ZM84 73C72.9543 73 64 81.9543 64 93C64 97.6773 65.6058 101.98 68.2959 105.386L121.961 198.076C123.393 200.549 125.97 202.009 128.665 202.167C131.938 202.77 135.373 201.278 137.092 198.214L190.042 103.804C190.301 103.341 190.508 102.863 190.667 102.377C192.155 99.5799 193 96.389 193 93C193 81.9543 184.046 73 173 73C172.704 73 172.409 73.0078 172.116 73.0205C171.935 73.0083 171.753 73 171.569 73H84ZM172.54 88.5C177.105 88.5002 179.998 93.3959 177.796 97.3945L134.256 176.456C131.975 180.597 126.025 180.597 123.744 176.456L118.978 167.802L143.881 137.152C143.963 137.051 144.04 136.946 144.115 136.837C144.194 136.723 144.268 136.607 144.336 136.489C144.338 136.486 144.34 136.483 144.342 136.48C144.348 136.469 144.354 136.456 144.36 136.444C144.394 136.385 144.426 136.325 144.457 136.265C144.464 136.251 144.471 136.237 144.478 136.223C144.545 136.088 144.605 135.95 144.659 135.812C144.668 135.788 144.678 135.764 144.687 135.74C144.707 135.686 144.726 135.632 144.744 135.578C144.756 135.543 144.766 135.508 144.777 135.473C144.788 135.438 144.799 135.404 144.809 135.369C144.823 135.32 144.835 135.271 144.848 135.222C144.856 135.189 144.864 135.155 144.872 135.122C144.883 135.074 144.893 135.026 144.902 134.979C144.908 134.95 144.914 134.921 144.919 134.893C144.928 134.843 144.936 134.793 144.943 134.743C144.948 134.712 144.954 134.68 144.958 134.648C144.964 134.599 144.97 134.549 144.975 134.5C144.977 134.472 144.98 134.445 144.982 134.417C144.994 134.276 144.999 134.134 144.999 133.993C144.999 133.975 144.999 133.957 144.999 133.939C144.998 133.888 144.996 133.836 144.994 133.785C144.993 133.752 144.991 133.719 144.989 133.687C144.986 133.637 144.982 133.587 144.978 133.538C144.975 133.506 144.971 133.474 144.968 133.441C144.963 133.403 144.958 133.365 144.953 133.327C144.947 133.282 144.941 133.236 144.934 133.191C144.928 133.155 144.921 133.118 144.914 133.082C144.907 133.044 144.9 133.006 144.892 132.969C144.883 132.929 144.874 132.889 144.864 132.849C144.854 132.806 144.844 132.764 144.833 132.722C144.824 132.688 144.814 132.655 144.805 132.621C144.793 132.581 144.782 132.54 144.77 132.5C144.759 132.466 144.747 132.432 144.735 132.397C144.718 132.347 144.701 132.298 144.683 132.248C144.675 132.229 144.669 132.21 144.661 132.19C144.641 132.14 144.621 132.089 144.6 132.039C144.588 132.011 144.575 131.982 144.562 131.954C144.539 131.903 144.515 131.852 144.49 131.801C144.484 131.788 144.478 131.775 144.472 131.763C144.444 131.708 144.415 131.653 144.386 131.599C144.372 131.573 144.358 131.548 144.344 131.523C144.318 131.479 144.293 131.434 144.266 131.39C144.253 131.368 144.239 131.347 144.226 131.326C144.195 131.278 144.163 131.229 144.131 131.182C144.115 131.158 144.098 131.135 144.081 131.111C144.053 131.072 144.025 131.033 143.996 130.994C143.974 130.964 143.951 130.935 143.928 130.906C143.901 130.872 143.874 130.837 143.846 130.804C143.82 130.772 143.793 130.742 143.767 130.711C143.738 130.678 143.709 130.645 143.68 130.613C143.656 130.587 143.631 130.563 143.606 130.537C143.574 130.504 143.542 130.469 143.509 130.437C143.459 130.387 143.407 130.339 143.354 130.292C143.349 130.287 143.344 130.282 143.339 130.277C143.221 130.172 143.097 130.072 142.968 129.977C142.958 129.969 142.948 129.961 142.938 129.954C142.905 129.93 142.872 129.907 142.838 129.884C142.721 129.803 142.601 129.727 142.479 129.657L126.778 120.686L154.838 88.5H172.54ZM115.269 118.67C115.149 118.805 115.035 118.947 114.929 119.097C114.678 119.447 114.48 119.821 114.331 120.209C114.012 121.037 113.93 121.912 114.058 122.751C114.062 122.777 114.065 122.804 114.069 122.83C114.075 122.863 114.082 122.897 114.088 122.93C114.126 123.133 114.178 123.335 114.241 123.533C114.247 123.551 114.254 123.57 114.26 123.588C114.356 123.876 114.478 124.157 114.628 124.427C114.983 125.067 115.482 125.636 116.111 126.08C116.255 126.182 116.402 126.275 116.553 126.359L132.405 135.418L113.772 158.35L80.2041 97.3945C78.0021 93.3959 80.8951 88.5002 85.46 88.5H141.571L115.269 118.67Z" fill="#019AED"/>
</svg>
